# xmcd
# Copyright (C) 1995-1998 Ti Kan
#
# Track frame offsets:
#       150
#       16473
#       32571
#       48294
#
# Disc length: 852 seconds
#
# Revision: 0
# Processed by: cddbd v1.5.2PL0 Copyright (c) Steve Scherf et al.
# Submitted via: CD-Transfer v1.0
#
DISCID=26035204
DTITLE=Susan Silvers - 
DYEAR=07
DGENRE=
TTITLE0=Ich Lebe Mein Leben
TTITLE1=Ich Will Meinen Spaﬂ
TTITLE2=Rock Dir Deine Tr‰nen Weg
TTITLE3=Wenn Du Heute Von Mir Gehst
EXTD=
EXTT0=
EXTT1=
EXTT2=
EXTT3=
PLAYORDER=
